# xmcd
#
# Track frame offsets: 
#        150
#        16351
#        31517
#        51631
#        70350
#        85739
#        98697
#        127945
#        145450
#        160209
#        174651
#        198182
#        213435
#        226172
#        246733
#        285658
#
# Disc length: 3944 seconds
#
# Revision: 0
# Processed by: cddbd v1.5.1PL0 Copyright (c) Steve Scherf et al.
# Submitted via: ExactAudioCopy v0.95a5
#
DISCID=e10f6610
DTITLE=Emmy Lou Harris - In My Own Style
DYEAR=1900
DGENRE=Country
TTITLE0=Introduction
TTITLE1=My Songbird
TTITLE2=Where Will I Be
TTITLE3=I Aint Living Long Like This
TTITLE4=Ive Always Needed You
TTITLE5=Love Hurts
TTITLE6=Deeper Well
TTITLE7=Prayer In Open D
TTITLE8=When My Blue Moon Turns To Gold Again
TTITLE9=Calling My Children Home
TTITLE10=All My Tears Be Washed Away
TTITLE11=Easy From Now On
TTITLE12=Gulf Coast Highway
TTITLE13=Born To Run
TTITLE14=The Maker
TTITLE15=Memories In Notes
EXTD=
EXTT0=
EXTT1=
EXTT2=
EXTT3=
EXTT4=
EXTT5=
EXTT6=
EXTT7=
EXTT8=
EXTT9=
EXTT10=
EXTT11=
EXTT12=
EXTT13=
EXTT14=
EXTT15=
PLAYORDER=
